<svg width="816" height="440" xmlns="http://www.w3.org/2000/svg" xmlns:xlink="http://www.w3.org/1999/xlink" xml:space="preserve" overflow="hidden"><defs><clipPath id="clip0"><rect x="232" y="140" width="816" height="440"/></clipPath></defs><g clip-path="url(#clip0)" transform="translate(-232 -140)"><path d="M0 165.426 17.9886 0 98.4654 0 116.454 165.426Z" stroke="#000000" stroke-width="1.43481" stroke-linecap="butt" stroke-linejoin="miter" stroke-miterlimit="8" stroke-opacity="1" fill="#FFFFFF" fill-rule="evenodd" fill-opacity="1" transform="matrix(-0.992965 -0.128445 -0.12861 0.991695 638.416 351.098)"/><text fill="#000000" fill-opacity="1" font-family="Calibri,Calibri_MSFontService,sans-serif" font-style="normal" font-variant="normal" font-weight="400" font-stretch="normal" font-size="18" text-anchor="start" direction="ltr" writing-mode="lr-tb" unicode-bidi="normal" text-decoration="none" transform="matrix(0.949813 0.122863 -0.123021 0.948598 562.76 439)">H</text><path d="M470.595 418.193 464.755 251.899 544.403 240.396 585.851 401.549Z" stroke="#000000" stroke-width="1.43478" stroke-linecap="butt" stroke-linejoin="miter" stroke-miterlimit="8" stroke-opacity="1" fill="#FFFFFF" fill-rule="evenodd" fill-opacity="1" transform="matrix(1.00128 0 0 1 190.817 96.9565)"/><text fill="#000000" fill-opacity="1" font-family="Calibri,Calibri_MSFontService,sans-serif" font-style="normal" font-variant="normal" font-weight="400" font-stretch="normal" font-size="18" text-anchor="start" direction="ltr" writing-mode="lr-tb" unicode-bidi="normal" text-decoration="none" transform="matrix(0.947912 -0.13672 0.136895 0.9467 704.556 440)">G</text><path d="M0 165.45 17.9912 0 98.4795 0 116.471 165.45Z" stroke="#000000" stroke-width="1.43502" stroke-linecap="butt" stroke-linejoin="miter" stroke-miterlimit="8" stroke-opacity="1" fill="#FFFFFF" fill-rule="evenodd" fill-opacity="1" transform="matrix(-0.934746 -0.357989 -0.358447 0.933551 530.227 338.405)"/><text fill="#000000" fill-opacity="1" font-family="Calibri,Calibri_MSFontService,sans-serif" font-style="normal" font-variant="normal" font-weight="400" font-stretch="normal" font-size="18" text-anchor="start" direction="ltr" writing-mode="lr-tb" unicode-bidi="normal" text-decoration="none" transform="matrix(0.894251 0.34248 -0.342918 0.893107 438.947 408)">I</text><path d="M0 165.486 17.9951 0 98.5009 0 116.496 165.486Z" stroke="#000000" stroke-width="1.43533" stroke-linecap="butt" stroke-linejoin="miter" stroke-miterlimit="8" stroke-opacity="1" fill="#FFFFFF" fill-rule="evenodd" fill-opacity="1" transform="matrix(-0.838517 -0.545824 -0.546523 0.837445 421.85 297.333)"/><text fill="#000000" fill-opacity="1" font-family="Calibri,Calibri_MSFontService,sans-serif" font-style="normal" font-variant="normal" font-weight="400" font-stretch="normal" font-size="18" text-anchor="start" direction="ltr" writing-mode="lr-tb" unicode-bidi="normal" text-decoration="none" transform="matrix(0.802366 0.522291 -0.52296 0.80134 317.581 346)">J</text><path d="M619.222 394.126 574.234 233.925 648.905 203.92 727.275 350.706Z" stroke="#000000" stroke-width="1.43478" stroke-linecap="butt" stroke-linejoin="miter" stroke-miterlimit="8" stroke-opacity="1" fill="#FFFFFF" fill-rule="evenodd" fill-opacity="1" transform="matrix(1.00128 0 0 1 190.817 96.9565)"/><text fill="#000000" fill-opacity="1" font-family="Calibri,Calibri_MSFontService,sans-serif" font-style="normal" font-variant="normal" font-weight="400" font-stretch="normal" font-size="18" text-anchor="start" direction="ltr" writing-mode="lr-tb" unicode-bidi="normal" text-decoration="none" transform="matrix(0.888682 -0.356646 0.357102 0.887546 835.777 408)">F</text><path d="M758.322 338.961 680.288 191.995 746.868 146.793 854.667 273.55Z" stroke="#000000" stroke-width="1.43478" stroke-linecap="butt" stroke-linejoin="miter" stroke-miterlimit="8" stroke-opacity="1" fill="#FFFFFF" fill-rule="evenodd" fill-opacity="1" transform="matrix(1.00128 0 0 1 190.817 96.9565)"/><text fill="#000000" fill-opacity="1" font-family="Calibri,Calibri_MSFontService,sans-serif" font-style="normal" font-variant="normal" font-weight="400" font-stretch="normal" font-size="18" text-anchor="start" direction="ltr" writing-mode="lr-tb" unicode-bidi="normal" text-decoration="none" transform="matrix(0.792387 -0.537273 0.53796 0.791373 956.485 349)">E</text><path d="M0 70.0958 10.8277 0 92.9679 0 103.795 70.0958Z" stroke="#000000" stroke-width="1.43484" stroke-linecap="butt" stroke-linejoin="miter" stroke-miterlimit="8" stroke-opacity="1" fill="#FFFFFF" fill-rule="evenodd" fill-opacity="1" transform="matrix(-0.986008 -0.173771 -0.173994 0.984747 633.091 245.563)"/><text fill="#000000" fill-opacity="1" font-family="Calibri,Calibri_MSFontService,sans-serif" font-style="normal" font-variant="normal" font-weight="400" font-stretch="normal" font-size="18" text-anchor="start" direction="ltr" writing-mode="lr-tb" unicode-bidi="normal" text-decoration="none" transform="matrix(0.943174 0.166222 -0.166435 0.941968 569.827 279)">C</text><path d="M379.739 69.3478C379.739 55.3487 409.717 44 446.696 44 483.675 44 513.652 55.3487 513.652 69.3478 513.652 83.347 483.675 94.6957 446.696 94.6957 409.717 94.6957 379.739 83.347 379.739 69.3478Z" stroke="#000000" stroke-width="1.43478" stroke-linecap="butt" stroke-linejoin="miter" stroke-miterlimit="8" stroke-opacity="1" fill="#FFFFFF" fill-rule="evenodd" fill-opacity="1" transform="matrix(1.00128 0 0 1 190.817 96.9565)"/><text fill="#000000" fill-opacity="1" font-family="Calibri,Calibri_MSFontService,sans-serif" font-style="normal" font-variant="normal" font-weight="400" font-stretch="normal" font-size="18" text-anchor="start" direction="ltr" writing-mode="lr-tb" unicode-bidi="normal" text-decoration="none" transform="matrix(0.957747 0 0 0.956522 617.988 173)">Pulpit</text><text fill="#000000" fill-opacity="1" font-family="Calibri,Calibri_MSFontService,sans-serif" font-style="normal" font-variant="normal" font-weight="400" font-stretch="normal" font-size="12" text-anchor="start" direction="ltr" writing-mode="lr-tb" unicode-bidi="normal" text-decoration="none" transform="matrix(0.952191 0.102882 -0.103013 0.950973 566.593 357)">Front</text><text fill="#000000" fill-opacity="1" font-family="Calibri,Calibri_MSFontService,sans-serif" font-style="normal" font-variant="normal" font-weight="400" font-stretch="normal" font-size="12" text-anchor="start" direction="ltr" writing-mode="lr-tb" unicode-bidi="normal" text-decoration="none" transform="matrix(0.892258 0.347627 -0.348072 0.891117 410.358 459)">Back</text><path d="M0 0 69.408 0 69.408 19.4577-1.03921e-06 19.4577Z" stroke="#2F528F" stroke-width="0.956538" stroke-linecap="butt" stroke-linejoin="miter" stroke-miterlimit="8" stroke-opacity="1" fill="#AFABAB" fill-rule="nonzero" fill-opacity="1" transform="matrix(-0.994583 -0.115322 -0.11547 0.993311 609.883 488.37)"/><text fill="#000000" fill-opacity="1" font-family="Calibri,Calibri_MSFontService,sans-serif" font-style="normal" font-variant="normal" font-weight="400" font-stretch="normal" font-size="11" text-anchor="start" direction="ltr" writing-mode="lr-tb" unicode-bidi="normal" text-decoration="none" transform="matrix(0.951356 0.11031 -0.110451 0.95014 546.279 494)">Video/Sound</text><path d="M0 70.1078 10.8295 0 92.9838 0 103.813 70.1078Z" stroke="#000000" stroke-width="1.43508" stroke-linecap="butt" stroke-linejoin="miter" stroke-miterlimit="8" stroke-opacity="1" fill="#FFFFFF" fill-rule="evenodd" fill-opacity="1" transform="matrix(-0.915247 -0.405024 -0.405542 0.914077 516.319 225.522)"/><text fill="#000000" fill-opacity="1" font-family="Calibri,Calibri_MSFontService,sans-serif" font-style="normal" font-variant="normal" font-weight="400" font-stretch="normal" font-size="18" text-anchor="start" direction="ltr" writing-mode="lr-tb" unicode-bidi="normal" text-decoration="none" transform="matrix(0.875638 0.387496 -0.387992 0.874518 446.33 242)">D</text><path d="M0 70.0968 10.8278 0 92.9692 0 103.797 70.0968Z" stroke="#000000" stroke-width="1.43486" stroke-linecap="butt" stroke-linejoin="miter" stroke-miterlimit="8" stroke-opacity="1" fill="#FFFFFF" fill-rule="evenodd" fill-opacity="1" transform="matrix(-0.979933 0.205131 0.205394 0.97868 742.41 224.695)"/><text fill="#000000" fill-opacity="1" font-family="Calibri,Calibri_MSFontService,sans-serif" font-style="normal" font-variant="normal" font-weight="400" font-stretch="normal" font-size="18" text-anchor="start" direction="ltr" writing-mode="lr-tb" unicode-bidi="normal" text-decoration="none" transform="matrix(0.937377 -0.196223 0.196474 0.936178 695.901 279)">B</text><path d="M0 70.1087 10.8297 0 92.9849 0 103.814 70.1087Z" stroke="#000000" stroke-width="1.4351" stroke-linecap="butt" stroke-linejoin="miter" stroke-miterlimit="8" stroke-opacity="1" fill="#FFFFFF" fill-rule="evenodd" fill-opacity="1" transform="matrix(-0.909843 0.416961 0.417495 0.90868 845.923 180.899)"/><text fill="#000000" fill-opacity="1" font-family="Calibri,Calibri_MSFontService,sans-serif" font-style="normal" font-variant="normal" font-weight="400" font-stretch="normal" font-size="18" text-anchor="start" direction="ltr" writing-mode="lr-tb" unicode-bidi="normal" text-decoration="none" transform="matrix(0.870479 -0.398921 0.399432 0.869365 812.309 244)">A</text><text fill="#000000" fill-opacity="1" font-family="Calibri,Calibri_MSFontService,sans-serif" font-style="normal" font-variant="normal" font-weight="400" font-stretch="normal" font-size="12" text-anchor="start" direction="ltr" writing-mode="lr-tb" unicode-bidi="normal" text-decoration="none" transform="matrix(0.893141 0.345358 -0.3458 0.891999 460.419 327)">Front</text><text fill="#000000" fill-opacity="1" font-family="Calibri,Calibri_MSFontService,sans-serif" font-style="normal" font-variant="normal" font-weight="400" font-stretch="normal" font-size="12" text-anchor="start" direction="ltr" writing-mode="lr-tb" unicode-bidi="normal" text-decoration="none" transform="matrix(0.799195 0.527118 -0.527793 0.798173 355.046 272)">Front</text><text fill="#000000" fill-opacity="1" font-family="Calibri,Calibri_MSFontService,sans-serif" font-style="normal" font-variant="normal" font-weight="400" font-stretch="normal" font-size="12" text-anchor="start" direction="ltr" writing-mode="lr-tb" unicode-bidi="normal" text-decoration="none" transform="matrix(0.947003 -0.142864 0.143047 0.945792 685.89 359)">Front</text><text fill="#000000" fill-opacity="1" font-family="Calibri,Calibri_MSFontService,sans-serif" font-style="normal" font-variant="normal" font-weight="400" font-stretch="normal" font-size="12" text-anchor="start" direction="ltr" writing-mode="lr-tb" unicode-bidi="normal" text-decoration="none" transform="matrix(0.895168 -0.340082 0.340517 0.894024 797.197 332)">Front</text><text fill="#000000" fill-opacity="1" font-family="Calibri,Calibri_MSFontService,sans-serif" font-style="normal" font-variant="normal" font-weight="400" font-stretch="normal" font-size="12" text-anchor="start" direction="ltr" writing-mode="lr-tb" unicode-bidi="normal" text-decoration="none" transform="matrix(0.802741 -0.521716 0.522384 0.801714 901.282 287)">Front</text><text fill="#000000" fill-opacity="1" font-family="Calibri,Calibri_MSFontService,sans-serif" font-style="normal" font-variant="normal" font-weight="400" font-stretch="normal" font-size="12" text-anchor="start" direction="ltr" writing-mode="lr-tb" unicode-bidi="normal" text-decoration="none" transform="matrix(0.800598 0.524992 -0.525664 0.799574 277.428 393)">Back</text><text fill="#000000" fill-opacity="1" font-family="Calibri,Calibri_MSFontService,sans-serif" font-style="normal" font-variant="normal" font-weight="400" font-stretch="normal" font-size="12" text-anchor="start" direction="ltr" writing-mode="lr-tb" unicode-bidi="normal" text-decoration="none" transform="matrix(0.949259 -0.127059 0.127221 0.948045 707.608 500)">Back</text><text fill="#000000" fill-opacity="1" font-family="Calibri,Calibri_MSFontService,sans-serif" font-style="normal" font-variant="normal" font-weight="400" font-stretch="normal" font-size="12" text-anchor="start" direction="ltr" writing-mode="lr-tb" unicode-bidi="normal" text-decoration="none" transform="matrix(0.893214 -0.345169 0.345611 0.892071 851.733 465)">Back</text><text fill="#000000" fill-opacity="1" font-family="Calibri,Calibri_MSFontService,sans-serif" font-style="normal" font-variant="normal" font-weight="400" font-stretch="normal" font-size="12" text-anchor="start" direction="ltr" writing-mode="lr-tb" unicode-bidi="normal" text-decoration="none" transform="matrix(0.786589 -0.545704 0.546403 0.785583 985.333 403)">Back</text><path d="M760.435 71.7391 841.739 71.7391 841.739 101.391 760.435 101.391Z" stroke="#2F528F" stroke-width="1.43478" stroke-linecap="butt" stroke-linejoin="miter" stroke-miterlimit="8" stroke-opacity="1" fill="#FFFFFF" fill-rule="nonzero" fill-opacity="1" transform="matrix(1.00128 0 0 1 190.817 96.9565)"/><text fill="#000000" fill-opacity="1" font-family="Calibri,Calibri_MSFontService,sans-serif" font-style="normal" font-variant="normal" font-weight="400" font-stretch="normal" font-size="18" text-anchor="start" direction="ltr" writing-mode="lr-tb" unicode-bidi="normal" text-decoration="none" transform="matrix(0.957747 0 0 0.956522 967.732 190)">Table 2</text><path d="M52.6087 71.7391 133.913 71.7391 133.913 101.391 52.6087 101.391Z" stroke="#2F528F" stroke-width="1.43478" stroke-linecap="butt" stroke-linejoin="miter" stroke-miterlimit="8" stroke-opacity="1" fill="#FFFFFF" fill-rule="nonzero" fill-opacity="1" transform="matrix(1.00128 0 0 1 190.817 96.9565)"/><text fill="#000000" fill-opacity="1" font-family="Calibri,Calibri_MSFontService,sans-serif" font-style="normal" font-variant="normal" font-weight="400" font-stretch="normal" font-size="18" text-anchor="start" direction="ltr" writing-mode="lr-tb" unicode-bidi="normal" text-decoration="none" transform="matrix(0.957747 0 0 0.956522 258.987 190)">Table 3</text><path d="M550.957 446.696 632.261 446.696 632.261 476.348 550.957 476.348Z" stroke="#2F528F" stroke-width="1.43478" stroke-linecap="butt" stroke-linejoin="miter" stroke-miterlimit="8" stroke-opacity="1" fill="#FFFFFF" fill-rule="nonzero" fill-opacity="1" transform="matrix(1.00128 0 0 1 190.817 96.9565)"/><text fill="#000000" fill-opacity="1" font-family="Calibri,Calibri_MSFontService,sans-serif" font-style="normal" font-variant="normal" font-weight="400" font-stretch="normal" font-size="18" text-anchor="start" direction="ltr" writing-mode="lr-tb" unicode-bidi="normal" text-decoration="none" transform="matrix(0.957747 0 0 0.956522 757.931 564)">Table 4</text><path d="M327.329 412.328 408.011 422.827 404.203 452.091 323.521 441.593Z" stroke="#2F528F" stroke-width="1.43478" stroke-linecap="butt" stroke-linejoin="miter" stroke-miterlimit="8" stroke-opacity="1" fill="#FFFFFF" fill-rule="nonzero" fill-opacity="1" transform="matrix(1.00128 0 0 1 190.817 96.9565)"/><text fill="#000000" fill-opacity="1" font-family="Calibri,Calibri_MSFontService,sans-serif" font-style="normal" font-variant="normal" font-weight="400" font-stretch="normal" font-size="18" text-anchor="start" direction="ltr" writing-mode="lr-tb" unicode-bidi="normal" text-decoration="none" transform="matrix(0.949739 0.123432 -0.12359 0.948524 531.665 532)">Table 5</text></g></svg>